<?xml version="1.0" encoding="utf-8"?>
<!-- Generator: Adobe Illustrator 16.0.0, SVG Export Plug-In . SVG Version: 6.00 Build 0)  -->
<!DOCTYPE svg PUBLIC "-//W3C//DTD SVG 1.1//EN" "http://www.w3.org/Graphics/SVG/1.1/DTD/svg11.dtd" [
	<!ENTITY ns_extend "http://ns.adobe.com/Extensibility/1.0/">
	<!ENTITY ns_ai "http://ns.adobe.com/AdobeIllustrator/10.0/">
	<!ENTITY ns_graphs "http://ns.adobe.com/Graphs/1.0/">
	<!ENTITY ns_vars "http://ns.adobe.com/Variables/1.0/">
	<!ENTITY ns_imrep "http://ns.adobe.com/ImageReplacement/1.0/">
	<!ENTITY ns_sfw "http://ns.adobe.com/SaveForWeb/1.0/">
	<!ENTITY ns_custom "http://ns.adobe.com/GenericCustomNamespace/1.0/">
	<!ENTITY ns_adobe_xpath "http://ns.adobe.com/XPath/1.0/">
]>
<svg version="1.1" id="Layer_1" xmlns:x="&ns_extend;" xmlns:i="&ns_ai;" xmlns:graph="&ns_graphs;"
	 xmlns="http://www.w3.org/2000/svg" xmlns:xlink="http://www.w3.org/1999/xlink" x="0px" y="0px" width="453.29px"
	 height="226.974px" viewBox="0 0 453.29 226.974" enable-background="new 0 0 453.29 226.974" xml:space="preserve">
<metadata>
	<sfw  xmlns="&ns_sfw;">
		<slices></slices>
		<sliceSourceBounds  width="414.219" height="172.351" bottomLeftOrigin="true" x="307.49" y="-472.559"></sliceSourceBounds>
	</sfw>
</metadata>
<g>
	<g>
		<path fill="#808184" d="M49.711,168.058l-29.894-26.17c-1.664-1.412-2.564-3.467-2.564-5.646c0-2.181,0.9-4.23,2.564-5.646
			l29.894-26.173c1.411-1.282,3.208-1.795,5.003-1.795c2.053,0,4.104,0.771,5.646,2.438c1.155,1.41,1.793,3.211,1.793,5.003
			c0,2.181-0.896,4.104-2.566,5.647l-23.479,20.525l23.479,20.527c1.67,1.54,2.566,3.465,2.566,5.645
			c0,1.796-0.638,3.595-1.793,5.005c-1.542,1.665-3.593,2.569-5.646,2.569C52.919,169.987,51.122,169.343,49.711,168.058z"/>
	</g>
</g>
<g>
	<g>
		<path fill="#808184" d="M394.011,169.987c-2.053,0-4.109-0.904-5.646-2.569c-1.156-1.41-1.796-3.209-1.796-5.005
			c0-2.18,0.901-4.104,2.568-5.645l23.474-20.527l-23.474-20.525c-1.667-1.543-2.568-3.467-2.568-5.647
			c0-1.792,0.64-3.593,1.796-5.003c1.537-1.667,3.594-2.438,5.646-2.438c1.796,0,3.588,0.514,5.005,1.795l29.892,26.173
			c1.67,1.415,2.564,3.465,2.564,5.646c0,2.18-0.895,4.234-2.564,5.646l-29.892,26.17
			C397.599,169.343,395.807,169.987,394.011,169.987z"/>
	</g>
</g>
<path fill="#808184" d="M89.747,106.613c0-1.132,0.322-2.105,0.958-2.923c0.638-0.811,1.629-1.221,2.976-1.221h12.165
	c0.424,0,0.885,0.098,1.382,0.293c0.497,0.193,0.958,0.476,1.382,0.849c0.426,0.373,0.79,0.805,1.089,1.301
	c0.301,0.497,0.453,1.061,0.453,1.7v59.243c0,1.342-0.372,2.361-1.116,3.053c-0.746,0.691-1.808,1.034-3.19,1.034H93.681
	c-2.623,0-3.934-1.363-3.934-4.087V106.613z"/>
<path fill="#808184" d="M173.338,161.867c-3.113,2.868-6.625,5.11-10.519,6.724c-3.894,1.61-8.021,2.415-12.377,2.415
	c-4.854,0-9.443-0.885-13.759-2.655c-4.321-1.771-8.111-4.227-11.37-7.359c-3.258-3.134-5.847-6.83-7.764-11.076
	c-1.907-4.25-2.868-8.873-2.868-13.869c0-3.115,0.383-6.138,1.143-9.057c0.765-2.925,1.843-5.659,3.244-8.211
	c1.396-2.55,3.096-4.896,5.102-7.038c1.999-2.141,4.239-3.976,6.716-5.501c2.481-1.517,5.174-2.708,8.082-3.556
	c2.901-0.85,5.964-1.278,9.189-1.278c2.941,0,5.788,0.389,8.556,1.171c2.755,0.778,5.353,1.876,7.781,3.293
	c2.427,1.419,4.646,3.116,6.667,5.103c2.016,1.982,3.757,4.149,5.212,6.506c1.446,2.356,2.577,4.871,3.367,7.546
	c0.797,2.673,1.201,5.428,1.201,8.261c0,1.843-0.033,3.346-0.083,4.517c-0.054,1.168-0.324,2.097-0.827,2.788
	c-0.49,0.691-1.317,1.169-2.464,1.436c-1.155,0.266-2.843,0.398-5.074,0.398h-38.254c0.351,2.268,1.07,4.162,2.148,5.686
	c1.083,1.526,2.33,2.735,3.751,3.643c1.415,0.9,2.919,1.547,4.512,1.937c1.595,0.387,3.1,0.582,4.516,0.582
	c1.278,0,2.589-0.133,3.934-0.397c1.342-0.267,2.647-0.62,3.907-1.062c1.251-0.444,2.406-0.956,3.454-1.541
	c1.043-0.585,1.887-1.198,2.523-1.834c0.565-0.459,1.051-0.804,1.458-1.035c0.411-0.23,0.839-0.347,1.301-0.347
	s0.927,0.16,1.409,0.479c0.478,0.318,1.019,0.779,1.622,1.383l5.631,6.373c0.391,0.462,0.636,0.876,0.744,1.249
	c0.108,0.374,0.158,0.754,0.158,1.143c0,0.709-0.191,1.322-0.582,1.834C174.333,161.027,173.871,161.482,173.338,161.867z
	 M147.782,117.611c-1.375,0-2.714,0.275-4.011,0.824c-1.292,0.549-2.506,1.285-3.634,2.203c-1.137,0.922-2.155,1.966-3.057,3.134
	c-0.902,1.172-1.642,2.356-2.207,3.562h27.148c-0.74-1.38-1.546-2.656-2.415-3.827c-0.869-1.168-1.862-2.192-2.979-3.078
	c-1.114-0.888-2.386-1.577-3.822-2.072C151.371,117.858,149.696,117.611,147.782,117.611z"/>
<path fill="#808184" d="M185.949,74.656c0-1.133,0.287-2.09,0.852-2.87c0.565-0.777,1.538-1.167,2.922-1.167h13.018
	c0.353,0,0.728,0.098,1.118,0.293c0.391,0.194,0.752,0.469,1.089,0.821c0.333,0.357,0.615,0.782,0.844,1.278
	c0.232,0.492,0.349,1.045,0.349,1.646v91.2c0,1.342-0.383,2.361-1.139,3.053c-0.769,0.691-1.745,1.034-2.955,1.034h-12.324
	c-1.384,0-2.356-0.343-2.922-1.034c-0.565-0.691-0.852-1.711-0.852-3.053V74.656z"/>
<path fill="#808184" d="M209.855,136.26c0-3.256,0.416-6.393,1.243-9.404c0.831-3.012,1.999-5.797,3.507-8.368
	c1.505-2.565,3.316-4.904,5.42-7.013c2.107-2.105,4.456-3.904,7.041-5.393c2.589-1.487,5.374-2.64,8.366-3.455
	c2.997-0.812,6.118-1.222,9.376-1.222c4.821,0,9.348,0.896,13.579,2.683c4.23,1.791,7.918,4.252,11.051,7.387
	c3.138,3.136,5.616,6.817,7.439,11.053c1.825,4.23,2.731,8.81,2.731,13.732c0,3.258-0.416,6.383-1.247,9.379
	c-0.827,2.992-2.003,5.783-3.504,8.366c-1.513,2.584-3.316,4.933-5.42,7.038c-2.107,2.109-4.46,3.918-7.04,5.421
	c-2.589,1.504-5.353,2.665-8.312,3.479c-2.959,0.815-6.052,1.221-9.277,1.221c-3.258,0-6.379-0.405-9.376-1.221
	c-2.992-0.814-5.777-1.976-8.366-3.479c-2.585-1.503-4.933-3.312-7.041-5.421c-2.104-2.105-3.915-4.454-5.42-7.038
	c-1.508-2.583-2.677-5.374-3.507-8.366C210.271,142.643,209.855,139.518,209.855,136.26z M229.248,136.26
	c0,2.337,0.362,4.524,1.09,6.562c0.719,2.038,1.754,3.799,3.075,5.286c1.33,1.487,2.938,2.667,4.834,3.534
	c1.895,0.865,4.03,1.3,6.408,1.3c2.295,0,4.381-0.435,6.242-1.3c1.854-0.867,3.433-2.047,4.727-3.534
	c1.292-1.487,2.281-3.248,2.971-5.286c0.695-2.038,1.04-4.226,1.04-6.562c0-2.268-0.345-4.429-1.04-6.484
	c-0.689-2.053-1.679-3.855-2.971-5.415c-1.294-1.561-2.872-2.79-4.727-3.693c-1.861-0.906-3.947-1.357-6.242-1.357
	c-2.378,0-4.514,0.451-6.408,1.357c-1.896,0.903-3.504,2.133-4.834,3.693c-1.321,1.56-2.356,3.362-3.075,5.415
	C229.61,131.831,229.248,133.992,229.248,136.26z"/>
<path fill="#808184" d="M275.781,107.729c-0.707-1.449-0.836-2.688-0.395-3.717c0.44-1.029,1.496-1.542,3.158-1.542h13.603
	c0.924,0,1.726,0.247,2.416,0.743c0.693,0.496,1.18,1.205,1.467,2.125c0.599,1.881,1.263,3.976,1.986,6.297
	c0.728,2.319,1.492,4.686,2.282,7.094c0.803,2.407,1.591,4.8,2.368,7.171c0.782,2.375,1.497,4.562,2.149,6.562
	c0.656,2.001,1.243,3.744,1.754,5.235c0.52,1.485,0.894,2.55,1.144,3.185l11.267-35.544c0.462-1.132,0.977-1.895,1.567-2.283
	c0.581-0.389,1.405-0.584,2.468-0.584h12.59c1.027,0,1.812,0.123,2.34,0.373c0.532,0.248,0.885,0.582,1.064,1.01
	c0.179,0.427,0.212,0.912,0.104,1.461c-0.104,0.551-0.283,1.123-0.528,1.727l-5.847,14.291c0.245,0.603,0.727,1.618,1.434,3.058
	c0.706,1.434,1.521,3.063,2.423,4.885c0.902,1.824,1.821,3.738,2.755,5.738c0.944,2.003,1.729,3.869,2.37,5.604l13.013-35.278
	c0.461-1.132,0.935-1.895,1.409-2.283c0.481-0.389,1.192-0.584,2.152-0.584h11.741c1.7,0,2.872,0.318,3.509,0.954
	c0.64,0.64,0.673,1.842,0.107,3.616L348.73,167.66c-0.319,0.64-0.806,1.178-1.463,1.618c-0.652,0.444-1.6,0.665-2.843,0.665h-5.573
	c-1.38,0-2.395-0.221-3.03-0.665c-0.635-0.44-1.151-1.016-1.538-1.727l-9.887-24.12l-9.722,24.229
	c-0.387,0.64-0.848,1.178-1.38,1.618c-0.532,0.444-1.33,0.665-2.39,0.665h-6.326c-1.417,0-2.415-0.203-3-0.609
	c-0.582-0.409-1.019-0.964-1.305-1.674L275.781,107.729z"/>
<path fill="#FFDD15" d="M61.801,57.77c0,20.914,16.956,37.872,37.874,37.872c20.92,0,37.874-16.958,37.874-37.872
	c0-20.922-16.953-37.877-37.874-37.877C78.756,19.892,61.801,36.847,61.801,57.77z"/>
<path fill="#808184" d="M388.073,72.864c-0.569-1.281-1.85-1.951-3.836-1.999l-13.715-0.334c-1.114-0.025-2.004,0.341-2.674,1.102
	c-0.669,0.76-1.425,2.26-2.269,4.497l-19.539,53.481l-20.547,53.108c-1.147,3.501-1.438,5.897-0.874,7.182
	c0.569,1.285,1.851,1.949,3.833,1.999l13.715,0.334c1.122,0.03,2.008-0.337,2.673-1.096c0.669-0.765,1.43-2.264,2.282-4.499
	l20.527-56.502l19.546-50.089C388.352,76.548,388.638,74.153,388.073,72.864z"/>
<g>
	<path fill="#808184" d="M93.426,179.179c3.649,0,6.655,2.459,6.655,6.448c0,3.762-2.798,6.429-6.561,6.429h-2.893
		c-0.643,0-1.21-0.418-1.21-0.945v-10.835c0-0.548,0.53-1.097,1.21-1.097H93.426z M91.875,181.354v8.527h1.683
		c2.363,0,3.952-1.76,3.952-4.254c0-2.439-1.475-4.273-4.046-4.273H91.875z"/>
	<path fill="#808184" d="M103.614,180.163c0-0.605,0.548-1.078,1.229-1.078c0.681,0,1.229,0.473,1.229,1.078v10.908
		c0,0.605-0.548,1.078-1.229,1.078c-0.681,0-1.229-0.473-1.229-1.078V180.163z"/>
	<path fill="#808184" d="M116.356,188.576c0-0.624-0.492-1.286-2.628-1.967l-0.473-0.151c-2.552-0.813-3.611-2.155-3.611-3.818
		c0-2.269,1.91-3.649,4.481-3.649c2.534,0,4.292,1.438,4.292,2.458c0,0.623-0.492,1.152-1.172,1.152
		c-0.378,0-0.643-0.15-1.153-0.623s-1.078-0.832-2.004-0.832c-1.191,0-2.003,0.604-2.003,1.381c0,0.718,0.737,1.247,2.344,1.776
		l0.454,0.151c3.062,1.021,3.913,2.4,3.913,3.914c0,2.42-2.193,3.875-4.669,3.875c-2.76,0-4.802-1.776-4.802-3.119
		c0-0.604,0.586-1.06,1.134-1.06c0.34,0,0.719,0.096,1.059,0.512c0.87,1.06,1.569,1.512,2.685,1.512
		C115.411,190.088,116.356,189.465,116.356,188.576z"/>
	<path fill="#808184" d="M129.626,185.607c0,0.549-0.378,1.078-1.134,1.078h-3.782v3.195h4.311c0.775,0,1.153,0.547,1.153,1.096
		s-0.378,1.079-1.153,1.079h-5.577c-0.625,0-1.191-0.418-1.191-0.965v-10.815c0-0.567,0.567-1.097,1.191-1.097h5.539
		c0.756,0,1.134,0.549,1.134,1.097c0,0.549-0.378,1.078-1.134,1.078h-4.273v3.157h3.782
		C129.248,184.511,129.626,185.06,129.626,185.607z"/>
	<path fill="#808184" d="M144.465,191.091c0,0.604-0.567,1.059-1.229,1.059c-0.7,0-1.002-0.379-1.305-0.794l-0.397-0.567
		c-1.739-2.477-3.667-4.765-5.521-7.411v7.694c0,0.605-0.548,1.078-1.21,1.078c-0.681,0-1.229-0.473-1.229-1.078v-10.739
		c0-0.85,0.662-1.247,1.38-1.247c0.454,0,0.832,0.17,1.191,0.643c2.269,2.893,4.026,5.123,5.88,7.884v-7.448
		c0-0.605,0.548-1.078,1.21-1.078c0.68,0,1.229,0.473,1.229,1.078V191.091z M139.871,176.229c0.132,0,0.189-0.075,0.246-0.169
		l0.056-0.096c0.17-0.265,0.435-0.473,0.813-0.473c0.435,0,0.907,0.284,0.907,0.889c0,0.586-0.492,1.739-1.815,1.739
		c-0.756,0-1.324-0.359-1.739-0.661c-0.17-0.132-0.246-0.151-0.303-0.151c-0.132,0-0.189,0.075-0.246,0.171l-0.057,0.094
		c-0.17,0.265-0.435,0.473-0.813,0.473c-0.435,0-0.908-0.284-0.908-0.888c0-0.587,0.492-1.74,1.815-1.74
		c0.756,0,1.323,0.359,1.739,0.661C139.739,176.212,139.814,176.229,139.871,176.229z"/>
	<path fill="#808184" d="M147.999,185.627c0-3.952,2.912-6.617,6.239-6.617c3.328,0,6.239,2.665,6.239,6.617
		c0,3.932-2.912,6.616-6.239,6.616C150.91,192.243,147.999,189.559,147.999,185.627z M157.886,185.627
		c0-2.685-1.664-4.462-3.649-4.462c-2.004,0-3.649,1.777-3.649,4.462s1.645,4.441,3.649,4.441
		C156.223,190.068,157.886,188.312,157.886,185.627z"/>
	<path fill="#808184" d="M179.795,184.927c0.624,0,1.248,0.436,1.248,1.078c0,0.151-0.038,0.303-0.151,0.567
		c-0.151,0.339-0.624,1.38-1.456,2.514l1.342,1.153c0.284,0.245,0.454,0.529,0.454,0.794c0,0.567-0.548,1.134-1.21,1.134
		c-0.284,0-0.605-0.094-0.813-0.282c-0.473-0.398-1.002-0.794-1.361-1.097c-0.964,0.795-2.155,1.455-3.819,1.455
		c-2.533,0-4.272-1.605-4.272-3.667c0-1.457,0.699-2.571,2.344-3.422c-0.681-0.737-1.153-1.722-1.153-2.779
		c0-1.796,1.437-3.385,3.744-3.385c2.25,0,3.725,1.475,3.725,3.252c0,1.607-1.267,2.647-2.666,3.309
		c0.605,0.623,1.304,1.286,2.004,1.947c0.303-0.473,0.662-1.247,0.964-1.91C178.945,185.115,179.38,184.927,179.795,184.927z
		 M173.481,186.59c-0.87,0.398-1.248,1.021-1.248,1.759c0,1.06,0.775,1.777,1.985,1.777c0.737,0,1.418-0.303,2.023-0.812
		L173.481,186.59z M174.086,183.811l0.34,0.303l0.265-0.112c0.662-0.284,1.285-0.833,1.285-1.646c0-0.851-0.643-1.267-1.285-1.267
		c-0.643,0-1.305,0.436-1.305,1.305C173.405,182.848,173.632,183.357,174.086,183.811z"/>
	<path fill="#808184" d="M194.747,179.179c3.649,0,6.655,2.459,6.655,6.448c0,3.762-2.798,6.429-6.561,6.429h-2.893
		c-0.643,0-1.21-0.418-1.21-0.945v-10.835c0-0.548,0.529-1.097,1.21-1.097H194.747z M193.196,181.354v8.527h1.683
		c2.364,0,3.952-1.76,3.952-4.254c0-2.439-1.475-4.273-4.046-4.273H193.196z"/>
	<path fill="#808184" d="M212.308,185.607c0,0.549-0.377,1.078-1.134,1.078h-3.781v3.195h4.311c0.775,0,1.153,0.547,1.153,1.096
		s-0.378,1.079-1.153,1.079h-5.577c-0.624,0-1.191-0.418-1.191-0.965v-10.815c0-0.567,0.567-1.097,1.191-1.097h5.54
		c0.756,0,1.135,0.549,1.135,1.097c0,0.549-0.378,1.078-1.135,1.078h-4.273v3.157h3.781
		C211.931,184.511,212.308,185.06,212.308,185.607z"/>
	<path fill="#808184" d="M222.44,188.576c0-0.624-0.492-1.286-2.628-1.967l-0.473-0.151c-2.552-0.813-3.61-2.155-3.61-3.818
		c0-2.269,1.909-3.649,4.48-3.649c2.534,0,4.292,1.438,4.292,2.458c0,0.623-0.491,1.152-1.172,1.152
		c-0.379,0-0.643-0.15-1.154-0.623c-0.51-0.473-1.077-0.832-2.003-0.832c-1.191,0-2.004,0.604-2.004,1.381
		c0,0.718,0.737,1.247,2.344,1.776l0.453,0.151c3.063,1.021,3.914,2.4,3.914,3.914c0,2.42-2.193,3.875-4.67,3.875
		c-2.76,0-4.802-1.776-4.802-3.119c0-0.604,0.585-1.06,1.134-1.06c0.34,0,0.718,0.096,1.058,0.512c0.87,1.06,1.57,1.512,2.685,1.512
		C221.495,190.088,222.44,189.465,222.44,188.576z"/>
	<path fill="#808184" d="M236.334,188.633h-5.237l-0.944,2.665c-0.209,0.624-0.7,0.869-1.173,0.869c-0.624,0-1.21-0.416-1.21-1.134
		c0-0.17,0.019-0.341,0.188-0.813c1.248-3.422,2.779-7.032,4.443-10.341c0.283-0.566,0.852-0.889,1.418-0.889
		c0.529,0,1.059,0.265,1.361,0.889c1.55,3.101,2.931,6.429,4.367,10.341c0.17,0.473,0.189,0.644,0.189,0.813
		c0,0.718-0.587,1.134-1.211,1.134c-0.473,0-0.982-0.245-1.19-0.869L236.334,188.633z M231.891,186.458h3.649
		c-0.397-1.002-1.191-2.912-1.796-4.33C233.158,183.509,232.383,185.268,231.891,186.458z"/>
	<path fill="#808184" d="M252.119,190.977c0,0.681-0.643,1.173-1.247,1.173c-0.378,0-0.832-0.228-1.116-0.586
		c-0.756-0.965-1.909-2.383-3.214-4.311c-0.17-0.245-0.302-0.303-0.548-0.303h-0.454v4.121c0,0.605-0.548,1.078-1.229,1.078
		s-1.247-0.473-1.247-1.078v-10.813c0-0.55,0.548-1.079,1.247-1.079h2.817c3.006,0,4.442,1.91,4.442,3.801
		c0,1.494-0.831,2.986-2.571,3.649c0.643,0.889,1.305,1.757,2.666,3.402C252.025,190.467,252.119,190.769,252.119,190.977z
		 M245.521,185.06h1.683c1.173,0,1.814-0.965,1.814-1.909c0-0.908-0.586-1.797-1.796-1.797h-1.701V185.06z"/>
	<path fill="#808184" d="M264.481,190.977c0,0.681-0.643,1.173-1.247,1.173c-0.379,0-0.833-0.228-1.116-0.586
		c-0.756-0.965-1.909-2.383-3.214-4.311c-0.17-0.245-0.303-0.303-0.549-0.303h-0.453v4.121c0,0.605-0.549,1.078-1.229,1.078
		c-0.681,0-1.248-0.473-1.248-1.078v-10.813c0-0.55,0.549-1.079,1.248-1.079h2.816c3.007,0,4.443,1.91,4.443,3.801
		c0,1.494-0.832,2.986-2.571,3.649c0.643,0.889,1.304,1.757,2.666,3.402C264.387,190.467,264.481,190.769,264.481,190.977z
		 M257.882,185.06h1.684c1.172,0,1.814-0.965,1.814-1.909c0-0.908-0.586-1.797-1.796-1.797h-1.702V185.06z"/>
	<path fill="#808184" d="M267.221,185.627c0-3.952,2.911-6.617,6.239-6.617c3.326,0,6.238,2.665,6.238,6.617
		c0,3.932-2.912,6.616-6.238,6.616C270.132,192.243,267.221,189.559,267.221,185.627z M277.109,185.627
		c0-2.685-1.664-4.462-3.648-4.462c-2.005,0-3.65,1.777-3.65,4.462s1.646,4.441,3.65,4.441
		C275.445,190.068,277.109,188.312,277.109,185.627z"/>
	<path fill="#808184" d="M283.232,180.163c0-0.605,0.549-1.078,1.229-1.078c0.681,0,1.229,0.473,1.229,1.078v9.718h4.178
		c0.757,0,1.135,0.547,1.135,1.096s-0.378,1.079-1.135,1.079h-5.426c-0.643,0-1.21-0.569-1.21-1.079V180.163z"/>
	<path fill="#808184" d="M294.121,180.163c0-0.605,0.548-1.078,1.229-1.078s1.229,0.473,1.229,1.078v9.718h4.179
		c0.757,0,1.134,0.547,1.134,1.096s-0.377,1.079-1.134,1.079h-5.426c-0.644,0-1.21-0.569-1.21-1.079V180.163z"/>
	<path fill="#808184" d="M303.307,185.627c0-3.952,2.911-6.617,6.239-6.617c3.327,0,6.239,2.665,6.239,6.617
		c0,3.932-2.912,6.616-6.239,6.616C306.218,192.243,303.307,189.559,303.307,185.627z M313.195,185.627
		c0-2.685-1.664-4.462-3.648-4.462c-2.004,0-3.649,1.777-3.649,4.462s1.646,4.441,3.649,4.441
		C311.531,190.068,313.195,188.312,313.195,185.627z"/>
</g>
</svg>
